<?xml version="1.0" encoding="utf-8"?>
<!-- Generator: Adobe Illustrator 23.0.4, SVG Export Plug-In . SVG Version: 6.00 Build 0)  -->
<svg version="1.1" id="Layer_1" xmlns="http://www.w3.org/2000/svg" xmlns:xlink="http://www.w3.org/1999/xlink" x="0px" y="0px"
	 viewBox="0 0 1000 1000" style="enable-background:new 0 0 1000 1000;" xml:space="preserve">
<style type="text/css">
	
		.st0{opacity:0.41;stroke:#000000;stroke-width:10;stroke-linecap:round;stroke-linejoin:round;stroke-miterlimit:10;enable-background:new    ;}
	
		.st1{opacity:0.41;fill:none;stroke:#000000;stroke-width:10;stroke-linecap:round;stroke-linejoin:round;stroke-miterlimit:10;enable-background:new    ;}
	.st2{fill:none;stroke:#663C3B;stroke-width:10;stroke-linejoin:round;stroke-miterlimit:10;}
	.st3{fill:#663C3B;}
	.st4{fill:#FEC556;}
	.st5{fill:#F29940;}
	.st6{fill:#835559;}
	.st7{fill:#95676B;}
	.st8{fill:none;stroke:#663C3B;stroke-width:6;stroke-linecap:round;stroke-linejoin:round;stroke-miterlimit:10;}
	.st9{fill:none;stroke:#663C3B;stroke-width:3;stroke-linecap:round;stroke-linejoin:round;stroke-miterlimit:10;}
	.st10{fill:none;stroke:#663C3B;stroke-width:8;stroke-linecap:round;stroke-linejoin:round;stroke-miterlimit:10;}
	.st11{opacity:0.17;enable-background:new    ;}
	.st12{fill:#32B94D;}
	.st13{fill:none;stroke:#663C3B;stroke-width:2;stroke-linecap:round;stroke-linejoin:round;stroke-miterlimit:10;}
	.st14{fill:#8BD8F5;}
	.st15{fill:#FEF585;}
	.st16{fill:#E7503B;}
</style>
<path id="XMLID_20_" class="st0" d="M692.3,474.8h-380c-72.9,0-132,59.1-132,132s59.1,132,132,132c51.3,0,95.8-29.3,117.6-72h144.8
	c21.8,42.7,66.3,72,117.6,72c72.9,0,132-59.1,132-132S765.2,474.8,692.3,474.8z"/>
<path id="XMLID_19_" class="st1" d="M502.3,442.5V323.1c0-13.7-11.1-24.8-24.8-24.8H290c-13.7,0-24.8-11.1-24.8-24.8l0,0
	c0-13.7,11.1-24.8,24.8-24.8h397.5c13.7,0,24.8-11.1,24.8-24.8l0,0c0-13.7-11.1-24.8-24.8-24.8H527c-13.7,0-24.8-11.1-24.8-24.8V69"
	/>
<path id="XMLID_43_" class="st2" d="M502.3,429.2V309.8c0-13.7-11.1-24.8-24.8-24.8H290c-13.7,0-24.8-11.1-24.8-24.8l0,0
	c0-13.7,11.1-24.8,24.8-24.8h397.5c13.7,0,24.8-11.1,24.8-24.8l0,0c0-13.7-11.1-24.8-24.8-24.8H527c-13.7,0-24.8-11.1-24.8-24.8V0"
	/>
<rect id="XMLID_37_" x="473.3" y="439" class="st3" width="58" height="12.5"/>
<rect id="XMLID_41_" x="481.5" y="432.8" class="st3" width="41.5" height="9.8"/>
<rect id="XMLID_54_" x="487" y="426.5" class="st3" width="30.5" height="9.4"/>
<path id="XMLID_44_" class="st4" d="M692.3,451.8h-380c-72.9,0-132,59.1-132,132s59.1,132,132,132c51.3,0,95.8-29.3,117.6-72h144.8
	c21.8,42.7,66.3,72,117.6,72c72.9,0,132-59.1,132-132S765.2,451.8,692.3,451.8z"/>
<path id="XMLID_74_" class="st5" d="M481.7,503.6h-28c-2.2,0-4-1.8-4-4l0,0c0-2.2,1.8-4,4-4h28c2.2,0,4,1.8,4,4l0,0
	C485.7,501.8,484,503.6,481.7,503.6z"/>
<path id="XMLID_73_" class="st5" d="M560.4,503.9h-56.9c-2.2,0-4-1.8-4-4l0,0c0-2.2,1.8-4,4-4h56.9c2.2,0,4,1.8,4,4l0,0
	C564.4,502.1,562.7,503.9,560.4,503.9z"/>
<path id="XMLID_71_" class="st5" d="M560.4,520.4H453.6c-2.2,0-4-1.8-4-4l0,0c0-2.2,1.8-4,4-4h106.8c2.2,0,4,1.8,4,4l0,0
	C564.4,518.6,562.6,520.4,560.4,520.4z"/>
<path id="XMLID_67_" class="st5" d="M452.4,602.7L452.4,602.7c-3.5-3.5-3.5-9.2,0-12.7l29.7-29.7c3.5-3.5,9.2-3.5,12.7,0l0,0
	c3.5,3.5,3.5,9.2,0,12.7l-29.7,29.7C461.6,606.2,455.9,606.2,452.4,602.7z"/>
<path id="XMLID_56_" class="st5" d="M519.4,602.7L519.4,602.7c-3.5-3.5-3.5-9.2,0-12.7l29.7-29.7c3.5-3.5,9.2-3.5,12.7,0l0,0
	c3.5,3.5,3.5,9.2,0,12.7l-29.7,29.7C528.6,606.2,522.9,606.2,519.4,602.7z"/>
<path id="XMLID_53_" class="st5" d="M312.3,463.3h380c71.3,0,129.4,55.6,131.9,125.1c0.1-1.6,0.1-3.1,0.1-4.7
	c0-72.9-59.1-132-132-132h-380c-72.9,0-132,59.1-132,132c0,1.6,0,3.1,0.1,4.7C182.8,518.9,240.9,463.3,312.3,463.3z"/>
<path id="XMLID_52_" class="st5" d="M692.3,698.8c-51.3,0-92.8-21.3-114.6-64H426.9c-21.8,42.7-63.3,64-114.6,64
	c-70,0-127.3-54.6-131.7-123.5c-0.2,2.8-0.3,5.6-0.3,8.5c0,72.9,59.1,132,132,132c51.3,0,95.8-29.3,117.6-72h144.8
	c21.8,42.7,66.3,72,117.6,72c72.9,0,132-59.1,132-132c0-2.9-0.1-5.7-0.3-8.5C819.6,644.2,762.3,698.8,692.3,698.8z"/>
<circle id="XMLID_48_" class="st5" cx="312.8" cy="591" r="85"/>
<circle id="XMLID_46_" class="st6" cx="312.8" cy="583.8" r="84"/>
<circle id="XMLID_50_" class="st7" cx="312.8" cy="583.8" r="71"/>
<path id="XMLID_6_" class="st3" d="M363.2,567.8h-34.4v-34.4c0-2.5-2.1-4.6-4.6-4.6h-22.8c-2.5,0-4.6,2.1-4.6,4.6v34.4h-34.4
	c-2.5,0-4.6,2.1-4.6,4.6v22.8c0,2.5,2.1,4.6,4.6,4.6h34.4v34.4c0,2.5,2.1,4.6,4.6,4.6h22.8c2.5,0,4.6-2.1,4.6-4.6v-34.4h34.4
	c2.5,0,4.6-2.1,4.6-4.6v-22.8C367.8,569.8,365.7,567.8,363.2,567.8z"/>
<circle id="XMLID_7_" class="st8" cx="312.8" cy="583.8" r="84"/>
<circle id="XMLID_51_" class="st5" cx="692.8" cy="591" r="85"/>
<circle id="XMLID_49_" class="st6" cx="692.8" cy="583.8" r="84"/>
<circle id="XMLID_66_" class="st7" cx="692.8" cy="583.8" r="71"/>
<circle id="XMLID_16_" class="st8" cx="692.8" cy="583.8" r="84"/>
<path id="XMLID_10_" class="st4" d="M306.3,547.2l5.5-9.6c0.4-0.7,1.4-0.7,1.8,0l5.5,9.6c0.4,0.7-0.1,1.6-0.9,1.6h-11.1
	C306.4,548.8,305.9,547.9,306.3,547.2z"/>
<path id="XMLID_12_" class="st4" d="M306.3,620.4l5.5,9.6c0.4,0.7,1.4,0.7,1.8,0l5.5-9.6c0.4-0.7-0.1-1.6-0.9-1.6h-11.1
	C306.4,618.8,305.9,619.7,306.3,620.4z"/>
<path id="XMLID_55_" class="st9" d="M363.2,567.8h-34.4v-34.4c0-2.5-2.1-4.6-4.6-4.6h-22.8c-2.5,0-4.6,2.1-4.6,4.6v34.4h-34.4
	c-2.5,0-4.6,2.1-4.6,4.6v22.8c0,2.5,2.1,4.6,4.6,4.6h34.4v34.4c0,2.5,2.1,4.6,4.6,4.6h22.8c2.5,0,4.6-2.1,4.6-4.6v-34.4h34.4
	c2.5,0,4.6-2.1,4.6-4.6v-22.8C367.8,569.8,365.7,567.8,363.2,567.8z"/>
<path id="XMLID_11_" class="st4" d="M347.6,577.3l9.6,5.5c0.7,0.4,0.7,1.4,0,1.8l-9.6,5.5c-0.7,0.4-1.6-0.1-1.6-0.9v-11.1
	C346,577.4,346.9,576.9,347.6,577.3z"/>
<path id="XMLID_9_" class="st4" d="M276.2,577.3l-9.6,5.5c-0.7,0.4-0.7,1.4,0,1.8l9.6,5.5c0.7,0.4,1.6-0.1,1.6-0.9v-11.1
	C277.8,577.4,276.9,576.9,276.2,577.3z"/>
<path id="XMLID_45_" class="st10" d="M602,445.8h90.8c19.5,0,38.1,4.1,55,11.4"/>
<path id="XMLID_36_" class="st10" d="M257.8,457.2c16.9-7.4,35.5-11.4,55-11.4H402"/>
<path id="XMLID_32_" class="st8" d="M692.3,451.8h-380c-72.9,0-132,59.1-132,132s59.1,132,132,132c51.3,0,95.8-29.3,117.6-72h144.8
	c21.8,42.7,66.3,72,117.6,72c72.9,0,132-59.1,132-132S765.2,451.8,692.3,451.8z"/>
<path id="XMLID_65_" class="st11" d="M706.3,571.5l-39.6,39.6c-8.6,8.6-22.5,8.6-31.1,0l0,0c-8.6-8.6-8.6-22.5,0-31.1l39.6-39.6
	c8.6-8.6,22.5-8.6,31.1,0l0,0C714.9,548.9,714.9,562.9,706.3,571.5z"/>
<path id="XMLID_59_" class="st4" d="M704.3,567.5l-39.6,39.6c-8.6,8.6-22.5,8.6-31.1,0l0,0c-8.6-8.6-8.6-22.5,0-31.1l39.6-39.6
	c8.6-8.6,22.5-8.6,31.1,0l0,0C712.9,544.9,712.9,558.9,704.3,567.5z"/>
<path id="XMLID_2_" class="st9" d="M704.3,567.5l-39.6,39.6c-8.6,8.6-22.5,8.6-31.1,0l0,0c-8.6-8.6-8.6-22.5,0-31.1l39.6-39.6
	c8.6-8.6,22.5-8.6,31.1,0l0,0C712.9,544.9,712.9,558.9,704.3,567.5z"/>
<circle id="XMLID_63_" class="st12" cx="649.2" cy="591.5" r="14"/>
<path id="XMLID_8_" class="st13" d="M640.2,590.7c0.4-5,4.8-8.6,9.8-8.2"/>
<circle id="XMLID_18_" class="st9" cx="649.2" cy="591.5" r="14"/>
<circle id="XMLID_62_" class="st14" cx="688.8" cy="551.9" r="14"/>
<path id="XMLID_13_" class="st13" d="M679.8,551.9c0-5,4-9,9-9"/>
<circle id="XMLID_17_" class="st9" cx="688.8" cy="551.9" r="14"/>
<path id="XMLID_64_" class="st11" d="M752.9,597.7l-39.6,39.6c-8.6,8.6-22.5,8.6-31.1,0l0,0c-8.6-8.6-8.6-22.5,0-31.1l39.6-39.6
	c8.6-8.6,22.5-8.6,31.1,0l0,0C761.5,575.2,761.5,589.1,752.9,597.7z"/>
<path id="XMLID_57_" class="st4" d="M751.9,592.7l-39.6,39.6c-8.6,8.6-22.5,8.6-31.1,0l0,0c-8.6-8.6-8.6-22.5,0-31.1l39.6-39.6
	c8.6-8.6,22.5-8.6,31.1,0l0,0C760.5,570.2,760.5,584.1,751.9,592.7z"/>
<path id="XMLID_35_" class="st9" d="M751.9,592.7l-39.6,39.6c-8.6,8.6-22.5,8.6-31.1,0l0,0c-8.6-8.6-8.6-22.5,0-31.1l39.6-39.6
	c8.6-8.6,22.5-8.6,31.1,0l0,0C760.5,570.2,760.5,584.1,751.9,592.7z"/>
<circle id="XMLID_61_" class="st15" cx="696.8" cy="616.8" r="14"/>
<path id="XMLID_15_" class="st13" d="M687.8,616.8c0-5,4-9,9-9"/>
<circle id="XMLID_34_" class="st9" cx="696.8" cy="616.8" r="14"/>
<circle id="XMLID_33_" class="st16" cx="736.4" cy="577.2" r="14"/>
<path id="XMLID_70_" class="st13" d="M727.4,577.2c0-5,4-9,9-9"/>
<circle id="XMLID_60_" class="st9" cx="736.4" cy="577.2" r="14"/>
<path id="XMLID_14_" class="st3" d="M452.4,598.7L452.4,598.7c-3.5-3.5-3.5-9.2,0-12.7l29.7-29.7c3.5-3.5,9.2-3.5,12.7,0l0,0
	c3.5,3.5,3.5,9.2,0,12.7l-29.7,29.7C461.6,602.2,455.9,602.2,452.4,598.7z"/>
<path id="XMLID_38_" class="st3" d="M519.4,598.7L519.4,598.7c-3.5-3.5-3.5-9.2,0-12.7l29.7-29.7c3.5-3.5,9.2-3.5,12.7,0l0,0
	c3.5,3.5,3.5,9.2,0,12.7l-29.7,29.7C528.6,602.2,522.9,602.2,519.4,598.7z"/>
<circle id="XMLID_58_" class="st4" cx="312.8" cy="583.8" r="16"/>
<path id="XMLID_72_" class="st5" d="M312.8,596.5c-8.1,0-15.1-6.4-15.9-14.4c-0.1,0.5-0.1,1.1-0.1,1.6c0,8.7,7.3,16,16,16
	s16-7.3,16-16c0-0.6,0-1.1-0.1-1.6C327.8,590.1,320.9,596.5,312.8,596.5z"/>
<path id="XMLID_68_" class="st13" d="M300.8,583.8c0-6.5,5.5-12,12-12"/>
</svg>
