<?xml version="1.0" encoding="utf-8"?>
<!-- Generator: Adobe Illustrator 23.0.4, SVG Export Plug-In . SVG Version: 6.00 Build 0)  -->
<svg version="1.1" id="Layer_1" xmlns="http://www.w3.org/2000/svg" xmlns:xlink="http://www.w3.org/1999/xlink" x="0px" y="0px"
	 viewBox="0 0 1000 1000" style="enable-background:new 0 0 1000 1000;" xml:space="preserve">
<style type="text/css">
	.st0{opacity:0.41;}
	.st1{stroke:#000000;stroke-miterlimit:10;}
	.st2{fill:#F9B03A;}
	.st3{opacity:0.4;fill:#F9B03A;enable-background:new    ;}
	.st4{opacity:0.68;fill:#F9B03A;enable-background:new    ;}
	.st5{fill:#EF3E1B;}
	.st6{opacity:0.69;fill:#EF3E1B;enable-background:new    ;}
	.st7{opacity:0.48;fill:#C6321A;enable-background:new    ;}
	.st8{fill:none;stroke:#030037;stroke-width:8;stroke-linecap:round;stroke-linejoin:round;stroke-miterlimit:10;}
	.st9{fill:#FF524E;}
	.st10{opacity:0.8;fill:#FF524E;enable-background:new    ;}
	.st11{opacity:0.5;fill:#FF524E;enable-background:new    ;}
	.st12{opacity:0.43;fill:#FF524E;enable-background:new    ;}
	.st13{fill:none;stroke:#030037;stroke-width:4;stroke-linecap:round;stroke-linejoin:round;}
	.st14{fill:none;stroke:#030037;stroke-width:4;stroke-linecap:round;stroke-linejoin:round;stroke-dasharray:3.8378,9.5945;}
	.st15{fill:#D9D9FF;}
	.st16{fill:#FFCED2;}
	.st17{opacity:0.2;fill:#FFCED2;enable-background:new    ;}
	.st18{fill:#FF1D1D;}
	.st19{opacity:0.22;}
	.st20{opacity:0.2;fill:#D8B2B6;enable-background:new    ;}
	.st21{fill:#D8B2B6;}
	.st22{fill:#38AD3D;}
	.st23{opacity:0.84;fill:#38AD3D;enable-background:new    ;}
	.st24{opacity:0.6;fill:#38AD3D;enable-background:new    ;}
	.st25{fill:#247C1A;}
</style>
<g>
	<g id="XMLID_128_" class="st0">
		<path id="XMLID_127_" class="st1" d="M356.8,450.1c-0.6-6.6-3.3-12.9-7.7-18.1l-21.5-25.5c-4.5-5.4-7-12-7-18.8v-14.4h-78.8v14.4
			c0,6.8-2.5,13.4-7,18.8L213.3,432c-4.4,5.2-7.1,11.5-7.7,18.1l-22.7,254.1h196.6L356.8,450.1z"/>
		<polygon id="XMLID_126_" class="st1" points="385.4,748.6 176.8,748.6 172.8,693 389.4,693 		"/>
		<path id="XMLID_125_" class="st1" d="M335.4,373.2H226.7l3.3-27.5c1.5-12.9,11.7-22.7,23.1-22.7H309c11.5,0,21.6,9.8,23.1,22.7
			L335.4,373.2z"/>
	</g>
	<path id="XMLID_129_" class="st2" d="M334.4,432.6c-0.6-6.6-3.3-12.9-7.7-18.1L305.2,389c-4.5-5.4-7-12-7-18.8v-14.4h-78.8v14.4
		c0,6.8-2.5,13.4-7,18.8l-21.5,25.5c-4.4,5.2-7.1,11.5-7.7,18.1l-22.7,254.1h196.6L334.4,432.6z"/>
	<path id="XMLID_119_" class="st3" d="M357.5,686.8l-22.7-254.1c-0.6-6.6-3.3-12.9-7.7-18.1L305.6,389c-4.5-5.4-7-12-7-18.8v-14.4
		h-33.8l-0.1,15.3c-0.1,8.1,2.8,16,8.1,22.4l25.2,30.1c5.1,6.1,8.2,13.5,8.8,21.1L320.3,600c2.8,32.3-13.1,57.1-44.3,65.6l-78.4,7.9
		l152.2,32.7l-5.1-19.4H357.5z"/>
	<path id="XMLID_110_" class="st4" d="M211.1,444.7c0.6-7.7,3.7-15,8.8-21.1l25.2-30.1c5.3-6.4,8.2-14.2,8.1-22.4l-0.1-15.3h-33.8
		v14.4c0,6.8-2.5,13.4-7,18.8l-21.5,25.5c-4.4,5.2-7.1,11.5-7.7,18.1l-22.7,254.1l18,6.2L211.1,444.7z"/>
	<polygon id="XMLID_130_" class="st5" points="349.4,600.8 168.1,600.8 179,478.9 338.6,478.9 	"/>
	<polygon id="XMLID_111_" class="st6" points="207.9,478.9 179,478.9 176.8,503.7 168.1,600.8 190.6,600.8 	"/>
	<polygon id="XMLID_107_" class="st7" points="310,478.9 339,478.9 341.2,503.7 349.9,600.8 321.2,600.8 	"/>
	<path id="XMLID_13_" class="st8" d="M334.4,432.6c-0.6-6.6-3.3-12.9-7.7-18.1L305.2,389c-4.5-5.4-7-12-7-18.8v-14.4h-78.8v14.4
		c0,6.8-2.5,13.4-7,18.8l-21.5,25.5c-4.4,5.2-7.1,11.5-7.7,18.1l-22.7,254.1h196.6L334.4,432.6z"/>
	<polygon id="XMLID_132_" class="st9" points="363.1,731.2 154.4,731.2 150.5,675.6 367.1,675.6 	"/>
	<polygon id="XMLID_109_" class="st10" points="150.5,675.6 154.4,731.2 173.4,731.2 169.5,675.6 	"/>
	<path id="XMLID_116_" class="st11" d="M286.7,718.8H154.4l-2.4-43.2h-1.5l4,55.6h208.7l4-55.6h-34.7l0,0
		C331,699.8,311,718.8,286.7,718.8z"/>
	<polygon id="XMLID_7_" class="st8" points="363.1,731.2 154.4,731.2 150.5,675.6 367.1,675.6 	"/>
	<path id="XMLID_133_" class="st9" d="M313.1,355.7H204.4l3.3-27.5c1.5-12.9,11.7-22.7,23.1-22.7h55.9c11.5,0,21.6,9.8,23.1,22.7
		L313.1,355.7z"/>
	<path id="XMLID_113_" class="st9" d="M309.9,328.2c-1.5-12.9-11.7-22.7-23.1-22.7h-55.9c-11.5,0-21.6,9.8-23.1,22.7l-3.3,27.5h0.8
		l2.4-20.5c1.5-12.9,11.7-22.7,23.1-22.7h55.9c11.5,0,21.6,9.8,23.1,22.7l2.4,20.5h0.8L309.9,328.2z"/>
	<path id="XMLID_120_" class="st12" d="M309.9,328.2c-1.5-12.9-11.7-22.7-23.1-22.7h-16.4c11.5,0,21.6,9.8,23.1,22.7l3.3,27.5h16.4
		L309.9,328.2z"/>
	<path id="XMLID_114_" class="st9" d="M246.7,305.5h-15.9c-11.5,0-21.6,9.8-23.1,22.7l-3.3,27.5h15.9l3.3-27.5
		C225.1,315.3,235.2,305.5,246.7,305.5z"/>
	<path id="XMLID_4_" class="st8" d="M313.1,355.7H204.4l3.3-27.5c1.5-12.9,11.7-22.7,23.1-22.7h55.9c11.5,0,21.6,9.8,23.1,22.7
		L313.1,355.7z"/>
	<g id="XMLID_5_">
		<line id="XMLID_6_" class="st8" x1="227.9" y1="332.5" x2="227.9" y2="355.7"/>
		<line id="XMLID_8_" class="st8" x1="248.5" y1="332.5" x2="248.5" y2="355.7"/>
		<line id="XMLID_14_" class="st8" x1="269.1" y1="332.5" x2="269.1" y2="355.7"/>
		<line id="XMLID_15_" class="st8" x1="289.7" y1="332.5" x2="289.7" y2="355.7"/>
	</g>
	<g id="XMLID_16_">
		<line id="XMLID_12_" class="st8" x1="178.5" y1="675.6" x2="181.1" y2="731.2"/>
		<line class="st8" x1="205.3" y1="675.6" x2="207" y2="731.2"/>
		<line class="st8" x1="232" y1="675.6" x2="232.9" y2="731.2"/>
		<line class="st8" x1="258.8" y1="675.6" x2="258.8" y2="731.2"/>
		<line class="st8" x1="285.5" y1="675.6" x2="284.7" y2="731.2"/>
		<line class="st8" x1="312.3" y1="675.6" x2="310.6" y2="731.2"/>
		<line id="XMLID_1_" class="st8" x1="339" y1="675.6" x2="336.5" y2="731.2"/>
	</g>
	<g id="XMLID_29_">
		<g>
			<line class="st13" x1="184.8" y1="425" x2="186.8" y2="425"/>
			<line class="st14" x1="196.4" y1="425" x2="325.9" y2="425"/>
			<line class="st13" x1="330.7" y1="425" x2="332.7" y2="425"/>
		</g>
	</g>
	<polygon id="XMLID_47_" class="st8" points="349.4,600.8 168.1,600.8 179,478.9 338.6,478.9 	"/>
	<polygon id="XMLID_46_" class="st8" points="350.9,617.1 166.7,617.1 168.1,600.8 349.4,600.8 	"/>
	<path id="XMLID_131_" class="st15" d="M243.6,531l15.2-27.7L274,531c6.3,11.5-2,25.6-15.2,25.6l0,0
		C245.6,556.6,237.3,542.6,243.6,531z"/>
	<path id="XMLID_28_" class="st8" d="M243.6,531l15.2-27.7L274,531c6.3,11.5-2,25.6-15.2,25.6l0,0
		C245.6,556.6,237.3,542.6,243.6,531z"/>
	<line id="XMLID_31_" class="st8" x1="230.2" y1="577.9" x2="289.7" y2="577.9"/>
</g>
<g>
	<g id="XMLID_72_" class="st0">
		<path id="XMLID_97_" class="st1" d="M834.2,415.8H552.1v-19.9l104-66.3h178c26.5,0,48.1,19.3,48.1,43.1c0,11.9-5.4,22.7-14.1,30.5
			C859.5,411,847.5,415.8,834.2,415.8z"/>
		<path id="XMLID_96_" class="st1" d="M834.2,415.8H659.8l-107.6-68.6v-17.6h111.6l214.1,61.2c-2.4,4.7-5.7,8.9-9.7,12.5
			C859.5,411,847.5,415.8,834.2,415.8z"/>
		<g id="XMLID_79_">
			<g id="XMLID_88_">
				<path id="XMLID_94_" class="st1" d="M479.8,259.6c-1.3,0.2-2.6,0.5-3.8,0.8C477.2,260.1,478.5,259.8,479.8,259.6z"/>
				<path id="XMLID_93_" class="st1" d="M468.5,263c1.2-0.5,2.4-1,3.6-1.4C470.9,262,469.7,262.5,468.5,263z"/>
				<path id="XMLID_92_" class="st1" d="M438.9,294.8c4.9-14.4,15.7-26,29.6-31.9C454.6,268.9,443.8,280.5,438.9,294.8z"/>
				<path id="XMLID_91_" class="st1" d="M438.9,328.9c0.6,1.6,1.2,3.3,1.9,4.8C440.1,332.1,439.4,330.5,438.9,328.9z"/>
				<path id="XMLID_90_" class="st1" d="M468.5,360.8c-12.3-5.2-22.2-14.9-27.7-27.1C446.3,345.8,456.2,355.6,468.5,360.8z"/>
				<path id="XMLID_101_" class="st1" d="M594.7,301l-33.8-5c-11.8-1.8-22.7-7.7-30.2-17.1c-9.7-12.2-24.7-20.1-41.6-20.1
					c-3.2,0-6.3,0.3-9.4,0.8c-1.3,0.2-2.6,0.5-3.8,0.8c-0.4,0.1-0.9,0.2-1.3,0.3c-0.8,0.2-1.7,0.5-2.5,0.8l0,0
					c-1.2,0.4-2.4,0.9-3.6,1.4l0,0c-13.9,5.9-24.7,17.5-29.6,31.9l0,0c-0.3,0.8-0.5,1.6-0.8,2.5c-0.1,0.4-0.2,0.8-0.3,1.3
					c-0.3,1.3-0.6,2.5-0.8,3.9c-0.5,3-0.8,6.2-0.8,9.4c0,3.2,0.3,6.3,0.8,9.4c0.2,1.3,0.5,2.6,0.8,3.9c0.1,0.4,0.2,0.8,0.3,1.3
					c0.2,0.8,0.5,1.7,0.8,2.5c0.6,1.6,1.2,3.3,1.9,4.8l0,0c5.5,12.1,15.4,21.8,27.7,27.1l0,0c0.8,0.3,1.6,0.6,2.4,1
					c5.7,2.1,11.8,3.2,18.2,3.2H560l44.9-51.8L594.7,301z M489.2,337.7c-14.2,0-25.8-11.5-25.8-25.8c0-14.2,11.5-25.8,25.8-25.8
					s25.8,11.5,25.8,25.8C515,326.1,503.4,337.7,489.2,337.7z"/>
			</g>
			<g id="XMLID_80_">
				<path id="XMLID_86_" class="st1" d="M479.8,485.8c-1.3-0.2-2.6-0.5-3.8-0.8C477.2,485.3,478.5,485.5,479.8,485.8z"/>
				<path id="XMLID_85_" class="st1" d="M468.5,482.4c1.2,0.5,2.4,1,3.6,1.4C470.9,483.4,469.7,482.9,468.5,482.4z"/>
				<path id="XMLID_84_" class="st1" d="M438.9,450.5c4.9,14.4,15.7,26,29.6,31.9C454.6,476.5,443.8,464.9,438.9,450.5z"/>
				<path id="XMLID_83_" class="st1" d="M438.9,416.5c0.6-1.6,1.2-3.3,1.9-4.8C440.1,413.3,439.4,414.9,438.9,416.5z"/>
				<path id="XMLID_82_" class="st1" d="M468.5,384.6c-12.3,5.2-22.2,14.9-27.7,27.1C446.3,399.6,456.2,389.8,468.5,384.6z"/>
				<path id="XMLID_103_" class="st1" d="M560.1,380.4h-70.9c-6.4,0-12.6,1.1-18.2,3.2c-0.8,0.3-1.6,0.6-2.4,1l0,0
					c-12.3,5.2-22.2,14.9-27.7,27.1l0,0c-0.7,1.6-1.3,3.2-1.9,4.8c-0.3,0.8-0.5,1.6-0.8,2.5c-0.1,0.4-0.2,0.8-0.3,1.3
					c-0.3,1.3-0.6,2.6-0.8,3.9c-0.5,3.1-0.8,6.2-0.8,9.4c0,3.2,0.3,6.3,0.8,9.4c0.2,1.3,0.5,2.6,0.8,3.9c0.1,0.4,0.2,0.9,0.3,1.3
					c0.2,0.8,0.5,1.7,0.8,2.5l0,0c4.9,14.4,15.8,26,29.6,31.9l0,0c1.2,0.5,2.4,1,3.6,1.4l0,0c0.8,0.3,1.7,0.5,2.5,0.8
					c0.4,0.1,0.9,0.2,1.3,0.3c1.3,0.3,2.5,0.6,3.8,0.8c3.1,0.5,6.2,0.8,9.4,0.8c16.8,0,31.8-7.9,41.6-20.1
					c7.4-9.4,18.3-15.3,30.2-17.1l33.8-5l10.4-12.1L560.1,380.4z M489.2,459.3c-14.2,0-25.8-11.5-25.8-25.8s11.5-25.8,25.8-25.8
					s25.8,11.5,25.8,25.8S503.4,459.3,489.2,459.3z"/>
			</g>
		</g>
		<circle id="XMLID_73_" class="st1" cx="669.2" cy="372.7" r="10.3"/>
	</g>
	<g id="XMLID_62_">
		<path id="XMLID_140_" class="st16" d="M817.9,404.1H535.8v-19.9l104-66.3h178c26.5,0,48.1,19.3,48.1,43.1
			c0,11.9-5.4,22.7-14.1,30.5C843.2,399.3,831.1,404.1,817.9,404.1z"/>
		<polygon id="XMLID_156_" class="st17" points="558.8,369.5 535.8,384.1 535.8,404.1 587.6,404.1 		"/>
		<path id="XMLID_154_" class="st17" d="M676.5,317.8h-36.7l-73.3,46.7l62,39.5h189.3c13.3,0,25.3-4.8,34-12.6
			c6-5.4,10.5-12.3,12.6-19.9L676.5,317.8z"/>
		<path id="XMLID_153_" class="st17" d="M851.8,380.1c-8.7,7.8-20.7,12.6-34,12.6h-282V404h282.1c13.3,0,25.3-4.8,34-12.6
			c8.7-7.8,14.1-18.6,14.1-30.5c0-1.9-0.2-3.8-0.4-5.7C864.1,364.9,859.1,373.6,851.8,380.1z"/>
		<path id="XMLID_122_" class="st17" d="M817.9,317.8h-15.2c26.5,0,48.1,19.3,48.1,43.1c0,11.9-5.4,22.7-14.1,30.5
			c-8.7,7.8-20.7,12.6-34,12.6h15.2c13.3,0,25.3-4.8,34-12.6c8.7-7.8,14.1-18.6,14.1-30.5C865.9,337.1,844.4,317.8,817.9,317.8z"/>
		<path id="XMLID_63_" class="st8" d="M817.9,404.1H535.8v-19.9l104-66.3h178c26.5,0,48.1,19.3,48.1,43.1c0,11.9-5.4,22.7-14.1,30.5
			C843.2,399.3,831.1,404.1,817.9,404.1z"/>
		<path id="XMLID_139_" class="st16" d="M817.9,404.1H643.4l-107.6-68.6v-17.6h111.6L861.5,379c-2.4,4.7-5.7,8.9-9.7,12.5
			C843.2,399.3,831.1,404.1,817.9,404.1z"/>
		<path id="XMLID_2_" class="st16" d="M817.9,404.1H643.4l-107.6-68.6v-17.6h111.6L861.5,379c-2.4,4.7-5.7,8.9-9.7,12.5
			C843.2,399.3,831.1,404.1,817.9,404.1z"/>
		<polygon id="XMLID_155_" class="st17" points="588.4,317.8 535.8,317.8 535.8,335.5 559.7,350.7 		"/>
		<path id="XMLID_121_" class="st17" d="M848.5,375.3c-1.4,1.7-3,3.4-4.7,4.9c-8.7,7.8-20.7,12.6-34,12.6H635.4l-99.6-63.5v6.2
			l107.6,68.6h174.4c13.3,0,25.3-4.8,34-12.6c4-3.6,7.3-7.8,9.7-12.5L848.5,375.3z"/>
		<path id="XMLID_71_" class="st8" d="M817.9,404.1H643.4l-107.6-68.6v-17.6h111.6L861.5,379c-2.4,4.7-5.7,8.9-9.7,12.5
			C843.2,399.3,831.1,404.1,817.9,404.1z"/>
		<path id="XMLID_64_" class="st8" d="M463.4,247.9c-1.3,0.2-2.6,0.5-3.8,0.8C460.8,248.4,462.1,248.1,463.4,247.9z"/>
		<path id="XMLID_65_" class="st8" d="M452.2,251.2c1.2-0.5,2.4-1,3.6-1.4C454.6,250.3,453.4,250.7,452.2,251.2z"/>
		<path id="XMLID_66_" class="st8" d="M422.5,283.1c4.9-14.4,15.7-26,29.6-31.9C438.3,257.1,427.4,268.7,422.5,283.1z"/>
		<path id="XMLID_68_" class="st8" d="M422.5,317.1c0.6,1.6,1.2,3.3,1.9,4.8C423.7,320.4,423.1,318.8,422.5,317.1z"/>
		<path id="XMLID_69_" class="st8" d="M452.2,349c-12.3-5.2-22.2-14.9-27.7-27.1C430,334.1,439.9,343.8,452.2,349z"/>
		<path id="XMLID_50_" class="st8" d="M463.4,474c-1.3-0.2-2.6-0.5-3.8-0.8C460.8,473.5,462.1,473.8,463.4,474z"/>
		<path id="XMLID_49_" class="st8" d="M452.2,470.7c1.2,0.5,2.4,1,3.6,1.4C454.6,471.6,453.4,471.2,452.2,470.7z"/>
		<path id="XMLID_48_" class="st8" d="M422.5,438.8c4.9,14.4,15.7,26,29.6,31.9C438.3,464.8,427.4,453.2,422.5,438.8z"/>
		<path id="XMLID_45_" class="st8" d="M422.5,404.8c0.6-1.6,1.2-3.3,1.9-4.8C423.7,401.5,423.1,403.1,422.5,404.8z"/>
		<path id="XMLID_44_" class="st8" d="M452.2,372.9c-12.3,5.2-22.2,14.9-27.7,27.1C430,387.8,439.9,378.1,452.2,372.9z"/>
		<circle id="XMLID_141_" class="st9" cx="652.9" cy="360.9" r="10.3"/>
		<circle id="XMLID_30_" class="st8" cx="652.9" cy="360.9" r="10.3"/>
		<path id="XMLID_136_" class="st18" d="M543.8,368.7h-70.9c-6.4,0-12.6,1.1-18.2,3.2c-0.8,0.3-1.6,0.6-2.4,1l0,0
			c-12.3,5.2-22.2,14.9-27.7,27.1l0,0c-0.7,1.6-1.3,3.2-1.9,4.8c-0.3,0.8-0.5,1.6-0.8,2.5c-0.1,0.4-0.2,0.8-0.3,1.3
			c-0.3,1.3-0.6,2.6-0.8,3.9c-0.5,3.1-0.8,6.2-0.8,9.4c0,3.2,0.3,6.3,0.8,9.4c0.2,1.3,0.5,2.6,0.8,3.9c0.1,0.4,0.2,0.9,0.3,1.3
			c0.2,0.8,0.5,1.7,0.8,2.5l0,0c4.9,14.4,15.8,26,29.6,31.9l0,0c1.2,0.5,2.4,1,3.6,1.4l0,0c0.8,0.3,1.7,0.5,2.5,0.8
			c0.4,0.1,0.9,0.2,1.3,0.3c1.3,0.3,2.5,0.6,3.8,0.8c3.1,0.5,6.2,0.8,9.4,0.8c16.8,0,31.8-7.9,41.6-20.1
			c7.4-9.4,18.3-15.3,30.2-17.1l33.8-5l10.4-12.1L543.8,368.7z M472.8,447.6c-14.2,0-25.8-11.5-25.8-25.8s11.5-25.8,25.8-25.8
			c14.2,0,25.8,11.5,25.8,25.8S487.1,447.6,472.8,447.6z"/>
		<g id="XMLID_160_" class="st19">
			<path id="XMLID_161_" class="st18" d="M447,421.8c0-11.6,7.7-21.5,18.3-24.7c-2.4-0.7-4.9-1.1-7.5-1.1
				c-14.2,0-25.8,11.5-25.8,25.8s11.5,25.8,25.8,25.8c2.6,0,5.2-0.4,7.5-1.1C454.7,443.2,447,433.4,447,421.8z"/>
			<path id="XMLID_162_" class="st18" d="M543.8,368.7h-15.1l44.9,51.8l-10.4,12.1l-33.8,5c-11.8,1.8-22.7,7.7-30.2,17.1
				c-8.3,10.4-20.3,17.6-34.1,19.6c2.5,0.4,5,0.5,7.6,0.5c16.8,0,31.8-7.9,41.6-20.1c7.4-9.4,18.3-15.3,30.2-17.1l33.8-5l10.4-12.1
				L543.8,368.7z"/>
		</g>
		<g id="XMLID_150_">
			<path id="XMLID_151_" class="st18" d="M507.4,425.8c0-12.1-8.4-22.3-19.6-25c6.6,4.7,10.9,12.4,10.9,21
				c0,14.2-11.5,25.8-25.8,25.8c-2.1,0-4.2-0.3-6.2-0.8c4.2,3,9.4,4.8,14.9,4.8C495.8,451.6,507.4,440,507.4,425.8z"/>
			<path id="XMLID_152_" class="st18" d="M431.3,442.8L431.3,442.8c-0.3-0.8-0.5-1.7-0.8-2.5c-0.1-0.4-0.2-0.8-0.3-1.3
				c-0.3-1.3-0.6-2.5-0.8-3.9c-0.5-3-0.8-6.2-0.8-9.4c0-3.2,0.3-6.3,0.8-9.4c0.2-1.3,0.5-2.6,0.8-3.9c0.1-0.4,0.2-0.8,0.3-1.3
				c0.2-0.8,0.5-1.7,0.8-2.5c0.6-1.6,1.2-3.3,1.9-4.8l0,0c5.5-12.1,15.4-21.8,27.7-27.1l0,0c0.8-0.3,1.6-0.6,2.4-1
				c5.7-2.1,11.8-3.2,18.2-3.2h65.7l-3.5-4h-70.9c-6.4,0-12.6,1.1-18.2,3.2c-0.8,0.3-1.6,0.6-2.4,1l0,0
				c-12.3,5.2-22.2,14.9-27.7,27.1l0,0c-0.7,1.6-1.3,3.2-1.9,4.8c-0.3,0.8-0.5,1.6-0.8,2.5c-0.1,0.4-0.2,0.8-0.3,1.3
				c-0.3,1.3-0.6,2.6-0.8,3.9c-0.5,3.1-0.8,6.2-0.8,9.4c0,3.2,0.3,6.3,0.8,9.4c0.2,1.3,0.5,2.6,0.8,3.9c0.1,0.4,0.2,0.9,0.3,1.3
				c0.2,0.8,0.5,1.7,0.8,2.5l0,0c4.9,14.4,15.8,26,29.6,31.9l0,0c1,0.4,2,0.8,3,1.2C444.1,465.4,435.5,455.1,431.3,442.8z"/>
		</g>
		<path id="XMLID_135_" class="st8" d="M543.8,368.7h-70.9c-6.4,0-12.6,1.1-18.2,3.2c-0.8,0.3-1.6,0.6-2.4,1l0,0
			c-12.3,5.2-22.2,14.9-27.7,27.1l0,0c-0.7,1.6-1.3,3.2-1.9,4.8c-0.3,0.8-0.5,1.6-0.8,2.5c-0.1,0.4-0.2,0.8-0.3,1.3
			c-0.3,1.3-0.6,2.6-0.8,3.9c-0.5,3.1-0.8,6.2-0.8,9.4c0,3.2,0.3,6.3,0.8,9.4c0.2,1.3,0.5,2.6,0.8,3.9c0.1,0.4,0.2,0.9,0.3,1.3
			c0.2,0.8,0.5,1.7,0.8,2.5l0,0c4.9,14.4,15.8,26,29.6,31.9l0,0c1.2,0.5,2.4,1,3.6,1.4l0,0c0.8,0.3,1.7,0.5,2.5,0.8
			c0.4,0.1,3.8,1,5.1,1.2c3.1,0.5,6.2,0.8,9.4,0.8c16.8,0,31.8-7.9,41.6-20.1c7.4-9.4,18.3-15.3,30.2-17.1l33.8-5l10.4-12.1
			L543.8,368.7z M472.8,447.6c-14.2,0-25.8-11.5-25.8-25.8s11.5-25.8,25.8-25.8c14.2,0,25.8,11.5,25.8,25.8S487.1,447.6,472.8,447.6
			z"/>
		<path id="XMLID_33_" class="st18" d="M578.3,289.3l-33.8-5c-11.8-1.8-22.7-7.7-30.2-17.1c-9.7-12.2-24.7-20.1-41.6-20.1
			c-3.2,0-6.3,0.3-9.4,0.8c-1.3,0.2-2.6,0.5-3.8,0.8c-0.4,0.1-0.9,0.2-1.3,0.3c-0.8,0.2-1.7,0.5-2.5,0.8l0,0
			c-1.2,0.4-2.4,0.9-3.6,1.4l0,0c-13.9,5.9-24.7,17.5-29.6,31.9l0,0c-0.3,0.8-0.5,1.6-0.8,2.5c-0.1,0.4-0.2,0.8-0.3,1.3
			c-0.3,1.3-0.6,2.5-0.8,3.9c-0.5,3-0.8,6.2-0.8,9.4c0,3.2,0.3,6.3,0.8,9.4c0.2,1.3,0.5,2.6,0.8,3.9c0.1,0.4,0.2,0.8,0.3,1.3
			c0.2,0.8,0.5,1.7,0.8,2.5c0.6,1.6,1.2,3.3,1.9,4.8l0,0c5.5,12.1,15.4,21.8,27.7,27.1l0,0c0.8,0.3,1.6,0.6,2.4,1
			c5.7,2.1,11.8,3.2,18.2,3.2h70.9l44.9-51.8L578.3,289.3z M472.8,325.9c-14.2,0-25.8-11.5-25.8-25.8c0-14.2,11.5-25.8,25.8-25.8
			c14.2,0,25.8,11.5,25.8,25.8C498.6,314.4,487.1,325.9,472.8,325.9z"/>
		<g id="XMLID_163_" class="st19">
			<path id="XMLID_164_" class="st18" d="M578.3,289.3l-33.8-5c-11.8-1.8-22.7-7.7-30.2-17.1c-9.7-12.2-24.7-20.1-41.6-20.1l0,0
				c11.5,2.9,21.5,9.5,28.6,18.5c7.4,9.4,18.3,15.3,30.2,17.1l33.8,5l10.4,12.1l-44.9,51.8h-70.9l0,0c4.2,1,8.5,1.6,13,1.6h70.9
				l44.9-51.8L578.3,289.3z"/>
			<path id="XMLID_165_" class="st18" d="M469.4,274.6c-3-1.2-6.2-1.8-9.6-1.8c-14.2,0-25.8,11.5-25.8,25.8
				c0,14.2,11.5,25.8,25.8,25.8c1.2,0,2.3-0.1,3.4-0.2c-9.5-3.8-16.2-13.1-16.2-23.9C447,287,456.8,276.2,469.4,274.6z"/>
		</g>
		<g id="XMLID_123_">
			<path id="XMLID_124_" class="st18" d="M509.4,305.5c0-12.2-8.5-22.4-19.9-25.1c5.6,4.7,9.1,11.8,9.1,19.7
				c0,14.2-11.5,25.8-25.8,25.8c-2,0-4-0.2-5.9-0.7c4.5,3.8,10.3,6.1,16.7,6.1C497.8,331.3,509.4,319.8,509.4,305.5z"/>
			<path id="XMLID_148_" class="st18" d="M555.3,289.7l26.8,4l-3.7-4.4l-33.8-5c-3.2-0.5-6.3-1.3-9.3-2.3
				C541.2,285.9,548.1,288.6,555.3,289.7z"/>
			<path id="XMLID_149_" class="st18" d="M435.2,327.4L435.2,327.4c-0.7-1.6-1.3-3.2-1.9-4.8c-0.3-0.8-0.5-1.6-0.8-2.5
				c-0.1-0.4-0.2-0.8-0.3-1.3c-0.3-1.3-0.6-2.6-0.8-3.9c-0.5-3.1-0.8-6.2-0.8-9.4c0-3.2,0.3-6.3,0.8-9.4c0.2-1.3,0.5-2.6,0.8-3.9
				c0.1-0.4,0.2-0.9,0.3-1.3c0.2-0.8,0.5-1.7,0.8-2.5l0,0c4.9-14.4,15.8-26,29.6-31.9l0,0c1.2-0.5,2.4-1,3.6-1.4l0,0
				c0.8-0.3,1.7-0.5,2.5-0.8c0.4-0.1,0.9-0.2,1.3-0.3c1.3-0.3,2.5-0.6,3.8-0.8c3.1-0.5,6.2-0.8,9.4-0.8c6.4,0,12.6,1.2,18.3,3.3
				c-8.3-5.5-18.3-8.7-29-8.7c-3.2,0-6.3,0.3-9.4,0.8c-1.3,0.2-2.6,0.5-3.8,0.8c-0.4,0.1-0.9,0.2-1.3,0.3c-0.8,0.2-1.7,0.5-2.5,0.8
				l0,0c-1.2,0.4-2.4,0.9-3.6,1.4l0,0c-13.9,5.9-24.7,17.5-29.6,31.9l0,0c-0.3,0.8-0.5,1.6-0.8,2.5c-0.1,0.4-0.2,0.8-0.3,1.3
				c-0.3,1.3-0.6,2.5-0.8,3.9c-0.5,3-0.8,6.2-0.8,9.4c0,3.2,0.3,6.3,0.8,9.4c0.2,1.3,0.5,2.6,0.8,3.9c0.1,0.4,0.2,0.8,0.3,1.3
				c0.2,0.8,0.5,1.7,0.8,2.5c0.6,1.6,1.2,3.3,1.9,4.8l0,0c5.5,12.1,15.4,21.8,27.7,27.1l0,0c0.8,0.3,1.6,0.6,2.4,0.9
				C446.1,344.5,439.4,336.6,435.2,327.4z"/>
		</g>
		<path id="XMLID_51_" class="st8" d="M578.3,289.3l-33.8-5c-11.8-1.8-22.7-7.7-30.2-17.1c-9.7-12.2-24.7-20.1-41.6-20.1
			c-3.2,0-6.3,0.3-9.4,0.8c-1.3,0.2-2.6,0.5-3.8,0.8c-0.4,0.1-0.9,0.2-1.3,0.3c-0.8,0.2-1.7,0.5-2.5,0.8l0,0
			c-1.2,0.4-2.4,0.9-3.6,1.4l0,0c-13.9,5.9-24.7,17.5-29.6,31.9l0,0c-0.3,0.8-0.5,1.6-0.8,2.5c-0.1,0.4-0.2,0.8-0.3,1.3
			c-0.3,1.3-0.6,2.5-0.8,3.9c-0.5,3-0.8,6.2-0.8,9.4c0,3.2,0.3,6.3,0.8,9.4c0.2,1.3,0.5,2.6,0.8,3.9c0.1,0.4,0.2,0.8,0.3,1.3
			c0.2,0.8,0.5,1.7,0.8,2.5c0.6,1.6,1.2,3.3,1.9,4.8l0,0c5.5,12.1,15.4,21.8,27.7,27.1l0,0c0.8,0.3,1.6,0.6,2.4,1
			c5.7,2.1,11.8,3.2,18.2,3.2h70.9l44.9-51.8L578.3,289.3z M472.8,325.9c-14.2,0-25.8-11.5-25.8-25.8c0-14.2,11.5-25.8,25.8-25.8
			c14.2,0,25.8,11.5,25.8,25.8C498.6,314.4,487.1,325.9,472.8,325.9z"/>
	</g>
</g>
<g>
	<g id="XMLID_81_" class="st0">
		<rect id="XMLID_106_" x="550.8" y="690" class="st1" width="306.7" height="46.9"/>
		<path id="XMLID_105_" class="st1" d="M797.2,529.6L549.1,709.8l-17.4-24c-13.7-18.9-9.6-45.4,9.4-59.1l213.8-155.4L797.2,529.6z"
			/>
		<rect id="XMLID_104_" x="576.2" y="659.1" class="st1" width="255.9" height="31"/>
		<polygon id="XMLID_102_" class="st1" points="767.2,551.4 781,584 618.9,659.1 657.9,590.5 		"/>
		<circle id="XMLID_98_" class="st1" cx="587.3" cy="674.5" r="31.7"/>
		<circle id="XMLID_95_" class="st1" cx="587.3" cy="674.5" r="16.6"/>
	</g>
	<g id="XMLID_60_">
		<rect id="XMLID_142_" x="531.5" y="673.5" class="st16" width="306.7" height="46.9"/>
		<rect id="XMLID_108_" x="531.5" y="706.2" class="st20" width="306.7" height="14.1"/>
		<polygon id="XMLID_144_" class="st21" points="747.9,534.8 761.7,567.5 599.6,642.5 638.6,574 		"/>
		<polygon id="XMLID_56_" class="st8" points="747.9,534.8 761.7,567.5 599.6,642.5 638.6,574 		"/>
		<rect id="XMLID_54_" x="531.5" y="673.5" class="st8" width="306.7" height="46.9"/>
		<path id="XMLID_143_" class="st22" d="M777.9,513L529.8,693.2l-17.4-24c-13.7-18.9-9.6-45.4,9.4-59.1l213.8-155.4L777.9,513z"/>
		<path id="XMLID_166_" class="st23" d="M526.3,673.1c-13.7-18.9-9.6-45.4,9.4-59.1L739,459.5l-3.5-4.8L521.7,610.1
			c-18.9,13.7-23.1,40.2-9.4,59.1l17.4,24l7.3-5.3L526.3,673.1z"/>
		<polygon id="XMLID_159_" class="st24" points="735.5,454.7 721,465.3 755.7,513 522.1,682.7 529.8,693.2 777.9,513 		"/>
		<path id="XMLID_57_" class="st8" d="M777.9,513L529.8,693.2l-17.4-24c-13.7-18.9-9.6-45.4,9.4-59.1l213.8-155.4L777.9,513z"/>
		<rect id="XMLID_145_" x="556.9" y="642.5" class="st21" width="255.9" height="31"/>
		<rect id="XMLID_34_" x="556.9" y="659.1" class="st20" width="255.9" height="14.4"/>
		<rect id="XMLID_55_" x="556.9" y="642.5" class="st8" width="255.9" height="31"/>
		<circle id="XMLID_146_" class="st21" cx="567.9" cy="658" r="31.7"/>
		<circle id="XMLID_58_" class="st8" cx="567.9" cy="658" r="31.7"/>
		<circle id="XMLID_147_" class="st25" cx="567.9" cy="658" r="16.6"/>
		<circle id="XMLID_59_" class="st8" cx="567.9" cy="658" r="16.6"/>
	</g>
</g>
</svg>
